<svg width="67" height="16" viewBox="0 0 67 16" fill="none" xmlns="http://www.w3.org/2000/svg">
<g id="Frame" clip-path="url(#clip0_67_731)">
<g id="Group">
<g id="Group_2">
<path id="Vector" d="M7.64815 6.96714H4.11874C1.65577 6.96714 0 8.67629 0 11.2199C0 12.4508 0.374728 13.5053 1.08388 14.2721C1.82026 15.0684 2.87037 15.49 4.11983 15.49H6.81481L7.64924 15.4857C7.7756 15.4857 7.86383 15.3952 7.86383 15.2656V13.636C7.86383 13.5064 7.7756 13.4159 7.64924 13.4159H4.15142C2.70915 13.4159 1.81373 12.5739 1.81373 11.2188C1.81373 9.86365 2.70915 9.03794 4.15142 9.03794L7.64815 9.03358C7.77451 9.03358 7.86274 8.94317 7.86274 8.81354V7.18391C7.86274 7.05428 7.77451 6.96387 7.64815 6.96387V6.96714Z" fill="url(#paint0_linear_67_731)"/>
<path id="Vector_2" d="M19.7721 1.7081C19.0358 0.911803 17.9857 0.490234 16.7362 0.490234L13.2068 0.494592C13.0804 0.494592 12.9922 0.585006 12.9922 0.714635V2.34427C12.9922 2.47389 13.0804 2.56431 13.2068 2.56431H16.7035C18.1458 2.56431 19.0412 3.40636 19.0412 4.76148C19.0412 6.1166 18.1458 6.9423 16.7035 6.9423L13.2068 6.94666C13.0804 6.94666 12.9922 7.03708 12.9922 7.16671V8.79634C12.9922 8.92597 13.0804 9.01638 13.2068 9.01638H16.7362C19.2002 9.01638 20.8549 7.30723 20.8549 4.76257C20.8549 3.53163 20.4802 2.47716 19.7711 1.71028L19.7721 1.7081Z" fill="url(#paint1_linear_67_731)"/>
<path id="Vector_3" d="M9.62408 2.26948C9.41929 2.0734 9.31689 1.8283 9.31689 1.53527C9.31689 1.24224 9.41929 0.998234 9.62408 0.801066C9.82888 0.604988 10.086 0.505859 10.3953 0.505859C10.7047 0.505859 10.9618 0.603899 11.1666 0.801066C11.3714 0.998234 11.4738 1.24224 11.4738 1.53527C11.4738 1.8283 11.3714 2.0734 11.1666 2.26948C10.9618 2.46664 10.7047 2.56468 10.3953 2.56468C10.086 2.56468 9.82888 2.46664 9.62408 2.26948Z" fill="url(#paint2_linear_67_731)"/>
<path id="Vector_4" d="M9.62408 8.72944C9.41929 8.53336 9.31689 8.28826 9.31689 7.99523C9.31689 7.7022 9.41929 7.45819 9.62408 7.26103C9.82888 7.06495 10.086 6.96582 10.3953 6.96582C10.7047 6.96582 10.9618 7.06386 11.1666 7.26103C11.3714 7.45819 11.4738 7.7022 11.4738 7.99523C11.4738 8.28826 11.3714 8.53336 11.1666 8.72944C10.9618 8.9266 10.7047 9.02464 10.3953 9.02464C10.086 9.02464 9.82888 8.9266 9.62408 8.72944Z" fill="url(#paint3_linear_67_731)"/>
<path id="Vector_5" d="M9.62408 15.1523C9.41929 14.9562 9.31689 14.7111 9.31689 14.4181C9.31689 14.1251 9.41929 13.881 9.62408 13.6839C9.82888 13.4878 10.086 13.3887 10.3953 13.3887C10.7047 13.3887 10.9618 13.4867 11.1666 13.6839C11.3714 13.881 11.4738 14.1251 11.4738 14.4181C11.4738 14.7111 11.3714 14.9562 11.1666 15.1523C10.9618 15.3495 10.7047 15.4475 10.3953 15.4475C10.086 15.4475 9.82888 15.3495 9.62408 15.1523Z" fill="url(#paint4_linear_67_731)"/>
</g>
<path id="Vector_6" d="M31.1526 7.52742C30.8748 8.04158 30.4391 8.45553 29.8476 8.76925C29.255 9.08407 28.5077 9.24093 27.6068 9.24093H25.767V13.4555H23.5654V2.47949H27.6068C28.4565 2.47949 29.1798 2.62655 29.7768 2.91958C30.3748 3.2137 30.8225 3.61675 31.121 4.13091C31.4195 4.64507 31.5687 5.22677 31.5687 5.87601C31.5687 6.46315 31.4293 7.01326 31.1515 7.52742H31.1526ZM28.865 7.04812C29.158 6.77034 29.3051 6.37927 29.3051 5.87601C29.3051 4.80629 28.707 4.27143 27.5121 4.27143H25.767V7.46424H27.5121C28.1199 7.46424 28.5709 7.3259 28.865 7.04703V7.04812Z" fill="url(#paint5_linear_67_731)"/>
<path id="Vector_7" d="M32.205 4.62626C31.9479 4.38007 31.8193 4.07288 31.8193 3.70578C31.8193 3.33867 31.9479 3.03257 32.205 2.7853C32.462 2.53911 32.7845 2.41602 33.1723 2.41602C33.5601 2.41602 33.8825 2.53911 34.1396 2.7853C34.3967 3.03148 34.5252 3.33867 34.5252 3.70578C34.5252 4.07288 34.3967 4.38007 34.1396 4.62626C33.8825 4.87244 33.5601 4.99554 33.1723 4.99554C32.7845 4.99554 32.462 4.87244 32.205 4.62626ZM34.2572 5.86809V13.4563H32.0557V5.86809H34.2572Z" fill="url(#paint6_linear_67_731)"/>
<path id="Vector_8" d="M43.2831 9.7606H36.9138C36.9661 10.3891 37.1861 10.8826 37.5739 11.2388C37.9617 11.595 38.4388 11.7737 39.0053 11.7737C39.8234 11.7737 40.4051 11.4229 40.7515 10.7203H43.1262C42.8746 11.5591 42.392 12.2486 41.6796 12.7878C40.9661 13.3281 40.0913 13.5972 39.0532 13.5972C38.2144 13.5972 37.4617 13.4109 36.7961 13.0384C36.1306 12.6658 35.6109 12.1397 35.2395 11.4578C34.8669 10.7769 34.6807 9.99045 34.6807 9.09938C34.6807 8.20832 34.8637 7.40657 35.2308 6.72466C35.5979 6.04383 36.1109 5.51877 36.7722 5.15167C37.4323 4.78457 38.1926 4.60156 39.0521 4.60156C39.9116 4.60156 40.6218 4.78021 41.2776 5.13642C41.9323 5.49263 42.441 5.99917 42.8027 6.65385C43.1643 7.30962 43.3452 8.06126 43.3452 8.91093C43.3452 9.22575 43.3245 9.50897 43.282 9.7606H43.2831ZM41.0652 8.28239C41.0543 7.71594 40.8506 7.26278 40.4519 6.92182C40.0532 6.58087 39.5663 6.41093 38.9889 6.41093C38.4432 6.41093 37.9846 6.57651 37.6131 6.90657C37.2406 7.23664 37.0129 7.69524 36.929 8.28239H41.0652Z" fill="url(#paint7_linear_67_731)"/>
<path id="Vector_9" d="M47.1894 5.01141C47.6458 4.74997 48.1665 4.61816 48.7536 4.61816V6.92971H48.1719C47.4802 6.92971 46.9584 7.09202 46.6077 7.41773C46.2558 7.74235 46.0804 8.3088 46.0804 9.11599V13.4569H43.8789V4.74453H46.0804V6.09747C46.3637 5.63668 46.7329 5.27503 47.1894 5.0125V5.01141Z" fill="url(#paint8_linear_67_731)"/>
<path id="Vector_10" d="M49.5826 6.73337C49.9497 6.0569 50.4573 5.53293 51.1076 5.16039C51.7579 4.78784 52.502 4.60156 53.3407 4.60156C54.4203 4.60156 55.3146 4.87171 56.0216 5.41093C56.7296 5.95124 57.2035 6.70832 57.4442 7.68326H55.0695C54.9442 7.30527 54.7318 7.01006 54.4322 6.79437C54.1338 6.57978 53.7634 6.47193 53.3233 6.47193C52.6948 6.47193 52.1958 6.6996 51.8298 7.15603C51.4627 7.61246 51.2797 8.25951 51.2797 9.09829C51.2797 9.93707 51.4627 10.5689 51.8298 11.0242C52.1969 11.4806 52.6948 11.7083 53.3233 11.7083C54.2144 11.7083 54.7961 11.3096 55.0684 10.5133H57.4431C57.2024 11.4567 56.7253 12.2061 56.0118 12.7617C55.2982 13.3173 54.4072 13.595 53.3386 13.595C52.4998 13.595 51.7558 13.4088 51.1054 13.0362C50.4551 12.6637 49.9464 12.1397 49.5804 11.4632C49.2133 10.7867 49.0303 9.99808 49.0303 9.09612C49.0303 8.19416 49.2133 7.40548 49.5804 6.72901L49.5826 6.73337Z" fill="url(#paint9_linear_67_731)"/>
<path id="Vector_11" d="M66.4662 9.7606H60.0969C60.1492 10.3891 60.3692 10.8826 60.757 11.2388C61.1448 11.595 61.6219 11.7737 62.1884 11.7737C63.0065 11.7737 63.5882 11.4229 63.9346 10.7203H66.3093C66.0577 11.5591 65.5751 12.2486 64.8627 12.7878C64.1492 13.3281 63.2744 13.5972 62.2363 13.5972C61.3975 13.5972 60.6448 13.4109 59.9792 13.0384C59.3137 12.6658 58.7941 12.1397 58.4226 11.4578C58.05 10.7769 57.8638 9.99045 57.8638 9.09938C57.8638 8.20832 58.0468 7.40657 58.4139 6.72466C58.781 6.04383 59.2941 5.51877 59.9553 5.15167C60.6154 4.78457 61.3758 4.60156 62.2352 4.60156C63.0947 4.60156 63.8049 4.78021 64.4607 5.13642C65.1154 5.49263 65.6241 5.99917 65.9858 6.65385C66.3474 7.30962 66.5283 8.06126 66.5283 8.91093C66.5283 9.22575 66.5076 9.50897 66.4651 9.7606H66.4662ZM64.2483 8.28239C64.2374 7.71594 64.0337 7.26278 63.635 6.92182C63.2363 6.58087 62.7494 6.41093 62.172 6.41093C61.6263 6.41093 61.1677 6.57651 60.7962 6.90657C60.4237 7.23664 60.196 7.69524 60.1121 8.28239H64.2483Z" fill="url(#paint10_linear_67_731)"/>
</g>
<g id="Group_3">
<g id="Group_4">
<path id="Vector_12" d="M7.64815 6.96714H4.11874C1.65577 6.96714 0 8.67629 0 11.2199C0 12.4508 0.374728 13.5053 1.08388 14.2721C1.82026 15.0684 2.87037 15.49 4.11983 15.49H6.81481L7.64924 15.4857C7.7756 15.4857 7.86383 15.3952 7.86383 15.2656V13.636C7.86383 13.5064 7.7756 13.4159 7.64924 13.4159H4.15142C2.70915 13.4159 1.81373 12.5739 1.81373 11.2188C1.81373 9.86365 2.70915 9.03794 4.15142 9.03794L7.64815 9.03358C7.77451 9.03358 7.86274 8.94317 7.86274 8.81354V7.18391C7.86274 7.05428 7.77451 6.96387 7.64815 6.96387V6.96714Z" fill="white"/>
<path id="Vector_13" d="M19.7721 1.7081C19.0358 0.911803 17.9857 0.490234 16.7362 0.490234L13.2068 0.494592C13.0804 0.494592 12.9922 0.585006 12.9922 0.714635V2.34427C12.9922 2.47389 13.0804 2.56431 13.2068 2.56431H16.7035C18.1458 2.56431 19.0412 3.40636 19.0412 4.76148C19.0412 6.1166 18.1458 6.9423 16.7035 6.9423L13.2068 6.94666C13.0804 6.94666 12.9922 7.03708 12.9922 7.16671V8.79634C12.9922 8.92597 13.0804 9.01638 13.2068 9.01638H16.7362C19.2002 9.01638 20.8549 7.30723 20.8549 4.76257C20.8549 3.53163 20.4802 2.47716 19.7711 1.71028L19.7721 1.7081Z" fill="white"/>
<path id="Vector_14" d="M9.62408 2.26948C9.41929 2.0734 9.31689 1.8283 9.31689 1.53527C9.31689 1.24224 9.41929 0.998234 9.62408 0.801066C9.82888 0.604988 10.086 0.505859 10.3953 0.505859C10.7047 0.505859 10.9618 0.603899 11.1666 0.801066C11.3714 0.998234 11.4738 1.24224 11.4738 1.53527C11.4738 1.8283 11.3714 2.0734 11.1666 2.26948C10.9618 2.46664 10.7047 2.56468 10.3953 2.56468C10.086 2.56468 9.82888 2.46664 9.62408 2.26948Z" fill="white"/>
<path id="Vector_15" d="M9.62408 8.72944C9.41929 8.53336 9.31689 8.28826 9.31689 7.99523C9.31689 7.7022 9.41929 7.45819 9.62408 7.26103C9.82888 7.06495 10.086 6.96582 10.3953 6.96582C10.7047 6.96582 10.9618 7.06386 11.1666 7.26103C11.3714 7.45819 11.4738 7.7022 11.4738 7.99523C11.4738 8.28826 11.3714 8.53336 11.1666 8.72944C10.9618 8.9266 10.7047 9.02464 10.3953 9.02464C10.086 9.02464 9.82888 8.9266 9.62408 8.72944Z" fill="white"/>
<path id="Vector_16" d="M9.62408 15.1523C9.41929 14.9562 9.31689 14.7111 9.31689 14.4181C9.31689 14.1251 9.41929 13.881 9.62408 13.6839C9.82888 13.4878 10.086 13.3887 10.3953 13.3887C10.7047 13.3887 10.9618 13.4867 11.1666 13.6839C11.3714 13.881 11.4738 14.1251 11.4738 14.4181C11.4738 14.7111 11.3714 14.9562 11.1666 15.1523C10.9618 15.3495 10.7047 15.4475 10.3953 15.4475C10.086 15.4475 9.82888 15.3495 9.62408 15.1523Z" fill="white"/>
</g>
<path id="Vector_17" d="M31.1526 7.52742C30.8748 8.04158 30.4391 8.45553 29.8476 8.76925C29.255 9.08407 28.5077 9.24093 27.6068 9.24093H25.767V13.4555H23.5654V2.47949H27.6068C28.4565 2.47949 29.1798 2.62655 29.7768 2.91958C30.3748 3.2137 30.8225 3.61675 31.121 4.13091C31.4195 4.64507 31.5687 5.22677 31.5687 5.87601C31.5687 6.46315 31.4293 7.01326 31.1515 7.52742H31.1526ZM28.865 7.04812C29.158 6.77034 29.3051 6.37927 29.3051 5.87601C29.3051 4.80629 28.707 4.27143 27.5121 4.27143H25.767V7.46424H27.5121C28.1199 7.46424 28.5709 7.3259 28.865 7.04703V7.04812Z" fill="white"/>
<path id="Vector_18" d="M32.205 4.62626C31.9479 4.38007 31.8193 4.07288 31.8193 3.70578C31.8193 3.33867 31.9479 3.03257 32.205 2.7853C32.462 2.53911 32.7845 2.41602 33.1723 2.41602C33.5601 2.41602 33.8825 2.53911 34.1396 2.7853C34.3967 3.03148 34.5252 3.33867 34.5252 3.70578C34.5252 4.07288 34.3967 4.38007 34.1396 4.62626C33.8825 4.87244 33.5601 4.99554 33.1723 4.99554C32.7845 4.99554 32.462 4.87244 32.205 4.62626ZM34.2572 5.86809V13.4563H32.0557V5.86809H34.2572Z" fill="white"/>
<path id="Vector_19" d="M43.2831 9.7606H36.9138C36.9661 10.3891 37.1861 10.8826 37.5739 11.2388C37.9617 11.595 38.4388 11.7737 39.0053 11.7737C39.8234 11.7737 40.4051 11.4229 40.7515 10.7203H43.1262C42.8746 11.5591 42.392 12.2486 41.6796 12.7878C40.9661 13.3281 40.0913 13.5972 39.0532 13.5972C38.2144 13.5972 37.4617 13.4109 36.7961 13.0384C36.1306 12.6658 35.6109 12.1397 35.2395 11.4578C34.8669 10.7769 34.6807 9.99045 34.6807 9.09938C34.6807 8.20832 34.8637 7.40657 35.2308 6.72466C35.5979 6.04383 36.1109 5.51877 36.7722 5.15167C37.4323 4.78457 38.1926 4.60156 39.0521 4.60156C39.9116 4.60156 40.6218 4.78021 41.2776 5.13642C41.9323 5.49263 42.441 5.99917 42.8027 6.65385C43.1643 7.30962 43.3452 8.06126 43.3452 8.91093C43.3452 9.22575 43.3245 9.50897 43.282 9.7606H43.2831ZM41.0652 8.28239C41.0543 7.71594 40.8506 7.26278 40.4519 6.92182C40.0532 6.58087 39.5663 6.41093 38.9889 6.41093C38.4432 6.41093 37.9846 6.57651 37.6131 6.90657C37.2406 7.23664 37.0129 7.69524 36.929 8.28239H41.0652Z" fill="white"/>
<path id="Vector_20" d="M47.1894 5.01141C47.6458 4.74997 48.1665 4.61816 48.7536 4.61816V6.92971H48.1719C47.4802 6.92971 46.9584 7.09202 46.6077 7.41773C46.2558 7.74235 46.0804 8.3088 46.0804 9.11599V13.4569H43.8789V4.74453H46.0804V6.09747C46.3637 5.63668 46.7329 5.27503 47.1894 5.0125V5.01141Z" fill="white"/>
<path id="Vector_21" d="M49.5826 6.73337C49.9497 6.0569 50.4573 5.53293 51.1076 5.16039C51.7579 4.78784 52.502 4.60156 53.3407 4.60156C54.4203 4.60156 55.3146 4.87171 56.0216 5.41093C56.7296 5.95124 57.2035 6.70832 57.4442 7.68326H55.0695C54.9442 7.30527 54.7318 7.01006 54.4322 6.79437C54.1338 6.57978 53.7634 6.47193 53.3233 6.47193C52.6948 6.47193 52.1958 6.6996 51.8298 7.15603C51.4627 7.61246 51.2797 8.25951 51.2797 9.09829C51.2797 9.93707 51.4627 10.5689 51.8298 11.0242C52.1969 11.4806 52.6948 11.7083 53.3233 11.7083C54.2144 11.7083 54.7961 11.3096 55.0684 10.5133H57.4431C57.2024 11.4567 56.7253 12.2061 56.0118 12.7617C55.2982 13.3173 54.4072 13.595 53.3386 13.595C52.4998 13.595 51.7558 13.4088 51.1054 13.0362C50.4551 12.6637 49.9464 12.1397 49.5804 11.4632C49.2133 10.7867 49.0303 9.99808 49.0303 9.09612C49.0303 8.19416 49.2133 7.40548 49.5804 6.72901L49.5826 6.73337Z" fill="white"/>
<path id="Vector_22" d="M66.4662 9.7606H60.0969C60.1492 10.3891 60.3692 10.8826 60.757 11.2388C61.1448 11.595 61.6219 11.7737 62.1884 11.7737C63.0065 11.7737 63.5882 11.4229 63.9346 10.7203H66.3093C66.0577 11.5591 65.5751 12.2486 64.8627 12.7878C64.1492 13.3281 63.2744 13.5972 62.2363 13.5972C61.3975 13.5972 60.6448 13.4109 59.9792 13.0384C59.3137 12.6658 58.7941 12.1397 58.4226 11.4578C58.05 10.7769 57.8638 9.99045 57.8638 9.09938C57.8638 8.20832 58.0468 7.40657 58.4139 6.72466C58.781 6.04383 59.2941 5.51877 59.9553 5.15167C60.6154 4.78457 61.3758 4.60156 62.2352 4.60156C63.0947 4.60156 63.8049 4.78021 64.4607 5.13642C65.1154 5.49263 65.6241 5.99917 65.9858 6.65385C66.3474 7.30962 66.5283 8.06126 66.5283 8.91093C66.5283 9.22575 66.5076 9.50897 66.4651 9.7606H66.4662ZM64.2483 8.28239C64.2374 7.71594 64.0337 7.26278 63.635 6.92182C63.2363 6.58087 62.7494 6.41093 62.172 6.41093C61.6263 6.41093 61.1677 6.57651 60.7962 6.90657C60.4237 7.23664 60.196 7.69524 60.1121 8.28239H64.2483Z" fill="white"/>
</g>
</g>
<defs>
<linearGradient id="paint0_linear_67_731" x1="3.93137" y1="15.49" x2="3.93137" y2="6.96713" gradientUnits="userSpaceOnUse">
<stop stop-color="#5A4BA6"/>
<stop offset="1" stop-color="#D14798"/>
</linearGradient>
<linearGradient id="paint1_linear_67_731" x1="16.9246" y1="9.0142" x2="16.9246" y2="0.490234" gradientUnits="userSpaceOnUse">
<stop stop-color="#5A4BA6"/>
<stop offset="1" stop-color="#D14798"/>
</linearGradient>
<linearGradient id="paint2_linear_67_731" x1="10.3953" y1="2.56468" x2="10.3953" y2="0.506949" gradientUnits="userSpaceOnUse">
<stop stop-color="#5A4BA6"/>
<stop offset="1" stop-color="#D14798"/>
</linearGradient>
<linearGradient id="paint3_linear_67_731" x1="10.3953" y1="9.02464" x2="10.3953" y2="0.489786" gradientUnits="userSpaceOnUse">
<stop stop-color="#5A4BA6"/>
<stop offset="1" stop-color="#D14798"/>
</linearGradient>
<linearGradient id="paint4_linear_67_731" x1="10.3953" y1="15.4475" x2="10.3953" y2="13.3898" gradientUnits="userSpaceOnUse">
<stop stop-color="#5A4BA6"/>
<stop offset="1" stop-color="#D14798"/>
</linearGradient>
<linearGradient id="paint5_linear_67_731" x1="27.5665" y1="13.4566" x2="27.5665" y2="2.47949" gradientUnits="userSpaceOnUse">
<stop stop-color="#5A4BA6"/>
<stop offset="1" stop-color="#D14798"/>
</linearGradient>
<linearGradient id="paint6_linear_67_731" x1="33.1712" y1="13.4563" x2="33.1712" y2="2.41602" gradientUnits="userSpaceOnUse">
<stop stop-color="#5A4BA6"/>
<stop offset="1" stop-color="#D14798"/>
</linearGradient>
<linearGradient id="paint7_linear_67_731" x1="39.014" y1="13.5983" x2="39.014" y2="4.60265" gradientUnits="userSpaceOnUse">
<stop stop-color="#5A4BA6"/>
<stop offset="1" stop-color="#D14798"/>
</linearGradient>
<linearGradient id="paint8_linear_67_731" x1="46.3168" y1="13.4569" x2="46.3168" y2="4.61816" gradientUnits="userSpaceOnUse">
<stop stop-color="#5A4BA6"/>
<stop offset="1" stop-color="#D14798"/>
</linearGradient>
<linearGradient id="paint9_linear_67_731" x1="53.2383" y1="13.5983" x2="53.2383" y2="4.60265" gradientUnits="userSpaceOnUse">
<stop stop-color="#5A4BA6"/>
<stop offset="1" stop-color="#D14798"/>
</linearGradient>
<linearGradient id="paint10_linear_67_731" x1="62.1971" y1="13.5983" x2="62.1971" y2="4.60265" gradientUnits="userSpaceOnUse">
<stop stop-color="#5A4BA6"/>
<stop offset="1" stop-color="#D14798"/>
</linearGradient>
<clipPath id="clip0_67_731">
<rect width="66.5294" height="15" fill="white" transform="translate(0 0.490234)"/>
</clipPath>
</defs>
</svg>
