<svg width="100" height="53" viewBox="0 0 100 53" fill="none" xmlns="http://www.w3.org/2000/svg">
<g id="logo">
<path id="Vector" d="M28.6492 52.4977C27.5266 52.4977 26.6195 51.5881 26.6195 50.4681V48.8591V19.1057C26.6195 17.9305 26.2883 17.0103 25.6231 16.3478C24.9579 15.6852 24.1718 15.3514 23.2622 15.3514C22.3525 15.3514 21.5743 15.6826 20.9302 16.3478C20.286 17.0129 19.9627 17.9331 19.9627 19.1057L20.0152 50.4628C20.0179 51.5854 19.1082 52.4977 17.9856 52.4977H15.3381C14.2155 52.4977 13.3084 51.5881 13.3084 50.4681V49.03V19.1057C13.3084 17.9305 12.9851 17.0103 12.3409 16.3478C11.6968 15.6852 10.9186 15.3514 10.0089 15.3514C9.09927 15.3514 8.31055 15.6826 7.64802 16.3478C6.98286 17.0129 6.65159 17.9331 6.65159 19.1057V48.8564V50.4655C6.65159 51.5881 5.74193 52.4951 4.62194 52.4951H3.35472H2.02966C0.907036 52.4951 0 51.5854 0 50.4655V48.8564V21.4929C0 19.2187 0.938586 17.4073 2.81576 16.0612C4.69292 14.7151 6.94079 14.0421 9.55674 14.0421C12.4777 14.0421 14.8465 14.631 16.6684 15.8062C18.5272 14.631 20.9354 14.0421 23.8932 14.0421C26.4723 14.0421 28.6807 14.7072 30.5211 16.0323C32.3588 17.36 33.279 19.1793 33.279 21.4929V50.4655C33.279 51.5881 32.3693 52.4951 31.2493 52.4951H28.6492V52.4977ZM56.5569 14.9517C57.6796 14.9517 58.5866 15.8614 58.5866 16.9814V45.3834C58.5866 46.7479 58.1213 47.9994 57.1932 49.1378C56.2625 50.2762 55.04 51.1674 53.523 51.8115C52.006 52.4557 50.3944 52.779 48.6881 52.779C47.0186 52.779 45.4254 52.4767 43.911 51.8694C42.394 51.2621 41.1531 50.3997 40.1856 49.2824C39.2181 48.165 38.6975 46.8636 38.6213 45.3861V18.593V16.984C38.6213 15.8614 39.531 14.9544 40.651 14.9544H43.2459C44.3685 14.9544 45.2755 15.864 45.2755 16.984V18.593V48.5725C45.2755 49.4454 45.6173 50.1473 46.2982 50.6784C46.9818 51.2095 47.7784 51.475 48.6881 51.475C49.5609 51.475 50.3181 51.22 50.9622 50.7073C51.6064 50.1947 51.9298 49.4848 51.9298 48.5751V16.984C51.9298 15.8614 52.8394 14.9544 53.9594 14.9544H56.5569V14.9517ZM79.2749 28.4915C78.1523 28.4915 77.2452 27.5819 77.2452 26.4619V18.196C77.2452 17.4388 76.9035 16.7842 76.2225 16.2347C75.539 15.6852 74.7818 15.4092 73.9484 15.4092C73.0755 15.4092 72.2999 15.6852 71.6164 16.2347C70.9328 16.7842 70.5937 17.4388 70.5937 18.196V25.079C70.5937 26.2174 71.0564 27.2611 71.9871 28.2076C72.9151 29.1567 74.348 30.2925 76.283 31.6201C77.913 32.7585 79.2302 33.7734 80.2371 34.6646C81.2415 35.5559 82.1038 36.5891 82.8268 37.7643C83.5472 38.9395 83.9074 40.2304 83.9074 41.6317V45.7278C83.9074 47.8889 82.9109 49.5952 80.9207 50.8467C78.9305 52.0981 76.588 52.7238 73.8958 52.7238C71.2036 52.7238 68.8716 52.1086 66.8998 50.8756C64.928 49.6425 63.9421 47.9284 63.9421 45.7278V36.0002V34.3912C63.9421 33.2686 64.8517 32.3615 65.9717 32.3615H68.5666C69.6892 32.3615 70.5963 33.2712 70.5963 34.3912V36.0002V48.0598C70.5963 49.122 70.9275 49.9475 71.5927 50.5338C72.2552 51.1227 73.0229 51.4146 73.8958 51.4146C74.8055 51.4146 75.5915 51.1201 76.2567 50.5338C76.9192 49.9449 77.2531 49.122 77.2531 48.0598V38.787C77.2531 37.6486 76.9587 36.6154 76.3724 35.6873C75.7835 34.7593 75.0631 33.9337 74.2113 33.2134C73.3568 32.493 72.1711 31.6017 70.6567 30.5396C69.1766 29.5169 68.0014 28.6335 67.1311 27.8947C66.2583 27.156 65.5195 26.312 64.9122 25.3629C64.3049 24.4164 64.0025 23.3727 64.0025 22.2343V21.3798C64.0025 19.0662 64.9884 17.2653 66.9603 15.9771C68.9321 14.6888 71.2641 14.0421 73.9563 14.0421C76.6484 14.0421 78.9804 14.6862 80.9523 15.9771C82.9241 17.268 83.91 19.0689 83.91 21.3798V24.8502V26.4592C83.91 27.5819 83.0003 28.4889 81.8803 28.4889H79.2749V28.4915ZM89.5336 50.4655V17.2837H87.3725C86.9545 17.2837 86.6232 17.1707 86.3761 16.9419C86.1289 16.7132 86.0054 16.4293 86.0054 16.0875C86.0054 15.7852 86.1289 15.5196 86.3761 15.2909C86.6232 15.0622 86.9545 14.9491 87.3725 14.9491H89.5336V3.85961V2.2506C89.5336 1.12798 90.4433 0.220947 91.5633 0.220947H94.1582C95.2808 0.220947 96.1878 1.13061 96.1878 2.2506V14.9517H98.6329C99.0509 14.9517 99.3822 15.0648 99.6293 15.2935C99.8764 15.5222 100 15.7878 100 16.0901C100 16.4319 99.8764 16.7158 99.6293 16.9446C99.3822 17.1733 99.0509 17.2864 98.6329 17.2864H96.1878V50.4681C96.1878 51.5907 95.2782 52.4977 94.1582 52.4977H91.5633C90.4406 52.4977 89.5336 51.5881 89.5336 50.4655Z" fill="#FEE7DC"/>
</g>
</svg>
