<?xml version="1.0" encoding="UTF-8"?>
<svg id="Layer_1" xmlns="http://www.w3.org/2000/svg" viewBox="0 0 151 26">
  <defs>
    <style>
      .cls-1 {
        fill: #343537;
      }
    </style>
  </defs>
  <path class="cls-1" d="M74.51.52h-9.91c-3.01,0-4.27-.48-4.27-.48l-.91,4.64h.51c.3-1.2.88-2.38,3.47-2.52,1.38-.07,4.35-.12,4.35-.12v11.8c0,2.65,0,4.98-.14,6.19-.09.83-.61,1.7-1.87,1.7h-1.01v.52h9.68v-.52h-1.01c-1.26,0-1.78-.86-1.87-1.7-.14-1.21-.14-3.54-.14-6.19V2.05s2.97.04,4.35.12c2.58.14,3.17,1.31,3.47,2.52h.51l-.91-4.64s-1.26.48-4.27.48Z"/>
  <path class="cls-1" d="M24.43,22.53c-1.93-2.02-4.46-5.23-8.55-10.49,2.91-2.36,3.77-4.29,3.77-6.42,0-1.93-1.15-3.4-1.96-3.94-1.55-1.07-3.55-1.24-5.37-1.24H2.98v.52h1.25c1.26,0,1.78.86,1.87,1.7.14,1.21.14,8.66.14,8.66,0,0,0,7.51-.14,8.72-.09.83-.61,1.7-1.87,1.7h-1.25v.52h10.25s0-.52,0-.52h-.65c-1.45,0-2.45-.86-2.53-1.7-.14-1.21-.14-6.79-.14-6.79h3.17c.37.43,1.86,2.59,3.01,4.17.63.87,2.61,3.55,4.17,5.05,2.42,2.34,4.73,3.53,8.01,3.53,1.27,0,2.15-.45,2.15-.45v-.39c-1.38.37-4.05-.61-5.98-2.64ZM14.56,11.37c-.52.37-.99.49-2.14.49-1.29,0-2.52-.29-2.52-.29V1.9s.97-.12,1.89-.12c1.7,0,4.47,1.18,4.47,5.27,0,2.36-.83,3.68-1.7,4.32Z"/>
  <path class="cls-1" d="M45.23.95h.93c1.26,0,1.78.86,1.87,1.7.14,1.15.14,6.12.14,6.13v3.6c0,2.97-.09,5.56-1.67,7.14-1.15,1.15-2.71,1.55-3.97,1.55-.98,0-2.3-.12-3.6-1.18-1.41-1.15-2.25-2.91-2.25-7.08v-4.03s0-4.96.14-6.13c.09-.83.61-1.7,1.87-1.7h.46V.43h-9.36v.52h1.18c1.26,0,1.78.86,1.87,1.7.14,1.21.14,6.13.14,6.13h0v4.2c0,4.17,1.09,6.3,2.56,7.63,2.1,1.9,4.86,1.99,6.39,1.99,1.87,0,3.94-.32,5.99-2.07,2.42-2.07,2.73-5.47,2.73-8.66v-3.08s0-4.92.14-6.13c.09-.83.61-1.7,1.87-1.7h1.01V.43h-8.47v.52Z"/>
  <path class="cls-1" d="M147.01.95h1.01V.43h-9.68v.52h1.01c1.26,0,1.78.86,1.87,1.7.14,1.21.14,8.66.14,8.66,0,0,0,7.51-.14,8.72-.09.83-.61,1.7-1.87,1.7h-1.01v.52h9.68v-.52h-1.01c-1.26,0-1.78-.86-1.87-1.7-.14-1.21-.14-8.72-.14-8.72,0,0,0-7.46.14-8.66.09-.83.61-1.7,1.87-1.7Z"/>
  <path class="cls-1" d="M86.53.95h1.01c1.26,0,1.78.86,1.87,1.7.14,1.21.14,8.66.14,8.66,0,0,0,7.51-.14,8.72-.09.83-.61,1.7-1.87,1.7h-1.01v.52h9.68v-.52h-1.01c-1.26,0-1.78-.86-1.87-1.7-.14-1.21-.14-8.72-.14-8.72,0,0,0-7.46.14-8.66.09-.83.61-1.7,1.87-1.7h1.01V.43h-9.68v.52Z"/>
  <path class="cls-1" d="M121.18.95h1.5c1.26,0,1.78.86,1.87,1.7.04.34.19,7.64.19,7.64l.05,6.55s-4.26-4.49-5.71-5.99c-2.63-2.72-10.54-10.85-10.54-10.85h-.61s-.17,18.83-.31,20.04c-.09.83-.61,1.7-1.87,1.7h-1.33v.52h8.95v-.52h-1.5c-1.26,0-1.78-.86-1.87-1.7-.04-.34-.08-2.09-.12-4.43l-.11-9.44s3.8,4.23,6.94,7.34c2.99,2.97,9.07,9.06,9.07,9.06h.84s.17-18.72.31-19.92c.09-.83.61-1.7,1.87-1.7h1.33V.43h-8.95v.52Z"/>
</svg>